<?xml version="1.0" standalone="no"?><!DOCTYPE svg PUBLIC "-//W3C//DTD SVG 1.1//EN" "http://www.w3.org/Graphics/SVG/1.1/DTD/svg11.dtd"><svg t="1721441647898" class="icon" viewBox="0 0 1024 1024" version="1.1" xmlns="http://www.w3.org/2000/svg" p-id="2894" xmlns:xlink="http://www.w3.org/1999/xlink" width="200" height="200"><path d="M0 512a511.99488 511.99488 0 1 0 1024 0A511.99488 511.99488 0 0 0 0 512z" fill="#F16090" p-id="2895"></path><path d="M737.892141 445.589144c2.232298 0.276477 19.251007-3.235808 19.809082-2.150378 0.844792 1.351666 8.647594 54.629854 6.696893 54.906331-1.300467 0.184318-6.604734 1.356786-15.907681 3.512284-1.105909-7.03481-10.316697-51.670523-10.582934-56.268237h-0.01536z m27.335407-5.135309l7.536564 57.07719c3.906521 0 19.235648-1.346547 20.638514-1.346547-1.484785-14.433136-3.440606-33.00831-5.852102-55.730643a61.859221 61.859221 0 0 0-22.322976 0z m-14.781292 78.990571c22.312737-5.416906 37.462665-6.855611 45.460025-4.326357 6.133699 21.636904 17.295187 142.559854 18.416456 147.423806-7.807922 0.814072-32.639674 2.98493-34.590374 3.522524-1.392626-8.934311-29.275867-140.931711-29.275868-146.619973h-0.010239z m124.107558-72.493356c1.9507 0.537595 19.809082-1.899501 19.809082-0.547834 0.281597 4.336597 2.232298 55.193048 0 55.193048l-16.173918 1.351667c-0.281597-7.03993-4.198358-51.399166-3.635164-55.996881z m27.05381-1.361906l1.402866 56.268237c3.901401 0 18.95405 0.814072 20.638514 0.814072a2772.421556 2772.421556 0 0 1 0-55.720403 119.110489 119.110489 0 0 0-22.04138-1.361906z m-23.152409 75.744523c22.691613-2.887651 37.938821-2.611174 45.741623 0.824311 2.513895 25.144069 2.232298 142.820972 2.513895 147.956281-7.807922 0-32.629434 0.276477-34.580134 0.814072-0.281597-9.461665-14.223218-143.911521-13.660024-149.584424l-0.01536-0.01024z m-79.476965-144.98671c19.798842 97.381426 34.861731 264.0204 35.127969 274.833731 10.419096 0.184318 21.483305 0.634874 33.202868 1.351667-10.321817-104.95383-22.870811-272.934231-22.870811-278.084899-4.182998-4.597714-45.460025 2.160618-45.460026 1.894381z m-43.519565 230.740732c-3.906521-27.325167-104.585194-58.423736-161.483185-48.424476a1754.452855 1754.452855 0 0 1-9.758622-118.746972c-2.232298-50.0475-0.281597-99.00445 0-106.853332-3.901401-2.698213-44.620354 16.235358-66.661734 24.074 17.663823 72.314157 32.818872 183.406806 45.460026 333.262587 20.454195 2.170858 48.158238-0.087039 83.117249-6.758332 52.433396-9.738143 114.620294-40.299117 109.326266-76.553475z m-123.257647 49.228308l-8.929191-61.941141c2.232298-1.075189 56.621514 18.662213 62.478735 22.184738-0.563194 2.524135-18.411336 15.779682-53.549544 39.756403zM317.600664 445.589144c2.232298 0.276477 19.251007-3.235808 19.814202-2.150378 0.547835 1.351666 8.632234 54.629854 6.681533 54.906331-1.300467 0.184318-6.691773 1.356786-16.179038 3.512284-0.824312-7.295927-10.0351-51.670523-10.316697-56.268237z m27.058929-5.135309l7.526325 57.07719c3.901401 0 19.245888-1.346547 20.633394-1.346547-1.484785-14.433136-3.435486-33.00831-5.852102-55.730643a51.716603 51.716603 0 0 0-22.312737 0z m-14.786412 78.990571c22.312737-5.416906 37.467785-6.855611 45.465146-4.326357 6.128579 21.636904 17.290067 142.559854 18.416455 147.423806-7.807922 0.814072-32.644794 2.98493-34.595494 3.522524-1.111029-8.657833-29.275867-140.670593-29.275867-146.619973h-0.01024z m124.107559-72.493356c1.95582 0.537595 19.798842-1.899501 19.798842-0.547834 0.281597 4.336597 2.232298 55.193048 0.281597 55.193048l-16.179038 1.351667c-0.542715-6.763452-4.177878-51.132929-3.896281-55.996881z m27.05893-1.361906l1.387506 56.268237c3.906521 0 18.96941 0.814072 20.638513 0.814072a2734.441776 2734.441776 0 0 1 0-55.720403 119.100249 119.100249 0 0 0-22.026019-1.361906z m-23.152409 75.478285c22.686493-2.882531 37.933701-2.611174 45.741623 0.814072 2.508775 25.159428 2.232298 142.820972 2.508775 147.97164-7.802802 0-32.624314 0.261117-34.575015 0.814072 0-9.200548-14.223218-143.921761-13.665143-149.599784h-0.01024zM378.410296 376.346957c19.793722 97.381426 34.856611 264.0204 35.122849 274.833731 10.419096 0.184318 21.488425 0.634874 33.202868 1.351667-10.316697-104.95383-22.870811-272.934231-22.870812-278.627614-2.785252-2.877411-17.940301-2.068459-45.460025 2.442216z m-43.232848 230.740732c-3.901401-27.325167-104.590314-58.423736-161.483185-48.424476a1743.567844 1743.567844 0 0 1-9.753502-118.746972c-2.232298-50.0475-0.281597-99.00445 0-106.853332-3.635164-2.437096-44.635714 16.235358-66.661734 24.074 17.663823 72.314157 32.818872 183.406806 45.460026 333.262587 20.449076 2.170858 48.158238-0.087039 83.112128-6.758332 52.428276-9.738143 114.620294-40.299117 109.326267-76.553475z m-123.278127 49.228308l-8.918951-61.941141c2.232298-1.075189 56.611274 18.662213 62.478735 22.184738-0.747513 2.524135-18.595654 15.779682-53.549544 39.756403h-0.01024z" fill="#FFFFFF" p-id="2896"></path></svg>