<?xml version="1.0" standalone="no"?><!DOCTYPE svg PUBLIC "-//W3C//DTD SVG 1.1//EN" "http://www.w3.org/Graphics/SVG/1.1/DTD/svg11.dtd"><svg t="1735883277523" class="icon" viewBox="0 0 1024 1024" version="1.1" xmlns="http://www.w3.org/2000/svg" p-id="2381" xmlns:xlink="http://www.w3.org/1999/xlink" width="128" height="128"><path d="M424.071447 0.698425c56.191126-0.221659 112.379597 0 168.566741 0.663649 58.38913 0.994146 115.906226 8.514611 172.548632 22.564052 118.793097 33.846078 195.112684 110.165665 228.958762 228.958762 14.403829 59.28771 21.925622 119.458073 22.564052 180.512416 1.133512 61.51226 0.690195 123.00992-1.327297 184.494307-1.83167 57.887412-11.12275 114.5192-27.87324 169.894038-39.011919 109.34805-114.889516 178.587835-227.631466 207.722007-62.011324 14.068023-124.836281 21.146499-188.476198 21.236755-62.417477 1.327297-124.800444 0.44199-187.148901-2.654594-57.757336-2.472755-113.947135-13.091132-168.566741-31.855132C117.968845 943.267894 54.48024 873.142803 25.218646 771.858083c-15.030313-57.860866-22.994096-116.703931-23.891349-176.530524a5608.159725 5608.159725 0 0 1 0-172.548633c0.84947-61.254765 9.25657-121.425127 25.218646-180.512415C56.956976 141.374671 121.330889 72.133559 219.667682 34.544503a552.259153 552.259153 0 0 1 127.420529-27.87324 2627.99531 2627.99531 0 0 1 76.983236-5.972838z" fill="#FE3E29" opacity=".998" p-id="2382"></path><path d="M417.434961 373.668931c-1.199877 0.941054-1.641867 2.268351-1.327297 3.981892h70.34675c0.858761 1.027328 1.300751 2.354625 1.327297 3.981891a2552.756143 2552.756143 0 0 1-6.636486 43.800807c-24.374485-0.866725-48.265834 0.017255-71.674047 2.654594a7433.856986 7433.856986 0 0 1-22.564052 169.894038c30.072572 1.327297 60.158417 1.769287 90.256208 1.327297a741.142832 741.142832 0 0 1-5.309189 49.109996h-226.967817a425.417326 425.417326 0 0 1 9.291081-48.446347c27.427269-0.663649 54.858519-0.885307 82.292424-0.663649a46694.736621 46694.736621 0 0 1 22.564052-173.875929h-69.019453c0.927781-16.292573 3.140385-32.220139 6.636486-47.782698h70.34675v-5.309189a3359.80857 3359.80857 0 0 1 15.263918-116.802151 473.866327 473.866327 0 0 1 49.773644-1.327298 4824.742478 4824.742478 0 0 1-14.600269 119.456746z" fill="#FFFDFD" p-id="2383"></path><path d="M219.667682 258.194077h49.109996a329.530724 329.530724 0 0 1-5.309189 36.500672c12.823018 0.663649 25.654 0.88398 38.491618 0.663649-1.449409 32.782913-10.51883 63.310748-27.209592 91.583505a1051.872391 1051.872391 0 0 1-19.245809 29.864186 1525.660408 1525.660408 0 0 1 50.437292 57.073779 230.676285 230.676285 0 0 1-34.509726 31.191483c-2.499301-0.499064-4.490246-1.826361-5.972837-3.981891a591.629442 591.629442 0 0 0-25.218647-27.873241c-10.988693 58.414349-21.827402 116.815424-32.51878 175.203227h-49.109996a16213.10486 16213.10486 0 0 0 27.209592-157.948364 930.082257 930.082257 0 0 1-37.164321 29.200538A1954.856549 1954.856549 0 0 1 121.447691 480.516353c27.382141-21.167735 53.264436-44.395436 77.646885-69.683101 17.825601-20.281101 32.204211-42.845153 43.137158-67.692156a1041.356216 1041.356216 0 0 0-74.328642-1.327297 786.727526 786.727526 0 0 1 5.972838-45.128104 314.909218 314.909218 0 0 1 40.482563-1.327297 1871.980114 1871.980114 0 0 1 5.309189-37.164321z" fill="#FFFDFD" p-id="2384"></path><path d="M580.692513 259.521374h298.641864a1025.376885 1025.376885 0 0 1-5.309189 47.782698c-80.633303-0.65303-161.156441 0.010618-241.568085 1.990946-2.017492 3.445663-3.12313 7.205896-3.318243 11.282026A72142.88586 72142.88586 0 0 0 595.292782 585.37283c-0.659667 6.418809 1.994928 10.842691 7.963783 13.272972 82.733087 0.663649 165.468829 0.885307 248.204571 0.663648a812.373562 812.373562 0 0 1-5.309188 49.109996c-90.257535 0.221659-180.513743 0-270.768624-0.663649-27.586544-8.047403-40.195868-26.409232-37.827969-55.082832a60308.895397 60308.895397 0 0 1 43.137158-333.151591z" fill="#FFFEFE" p-id="2385"></path><path d="M794.387358 345.79569c16.818182-0.221659 33.631056 0 50.437293 0.663649 1.786542 3.708468 1.122893 7.026711-1.990946 9.954729a2342.459179 2342.459179 0 0 0-73.664993 92.247153 11629.615898 11629.615898 0 0 0 60.392021 100.210937c1.09502 2.921381 0.431372 5.354317-1.990946 7.300134a557.849729 557.849729 0 0 1-54.419184 0 1655.497945 1655.497945 0 0 1-40.482564-65.70121 5753.266488 5753.266488 0 0 1-52.428238 64.373913 557.849729 557.849729 0 0 1-54.419184 0c-1.448081-2.739541-1.66974-5.615794-0.663649-8.627432a8340.008075 8340.008075 0 0 0 81.628777-98.21999 2159.467372 2159.467372 0 0 0-48.446347-88.928911c-3.53592-3.817307-3.757578-7.578867-0.663649-11.282026a479.24719 479.24719 0 0 1 50.437293 0 3817.227031 3817.227031 0 0 0 35.173375 57.737427 3116.712766 3116.712766 0 0 0 51.100941-59.728373z" fill="#FFFDFD" p-id="2386"></path><path d="M366.997668 372.341634v5.309189h-70.34675a897.809026 897.809026 0 0 1 69.019453-1.327298c-0.314569-1.713541 0.127421-3.040838 1.327297-3.981891zM417.434961 373.668931a893.580258 893.580258 0 0 0 69.019453 3.981892h-70.34675c-0.314569-1.713541 0.127421-3.040838 1.327297-3.981892z" fill="#FEA59B" p-id="2387"></path><path d="M481.145225 425.433521c-23.761274 0.901235-47.652623 1.786542-71.674047 2.654594 23.408213-2.637339 47.299562-3.521319 71.674047-2.654594z" fill="#FE6C5C" p-id="2388"></path><path d="M432.03523 762.567003a103.906132 103.906132 0 0 1 33.182429 3.318243c8.928728 4.068166 14.459575 10.924983 16.591215 20.573106 7.909364 44.848044-10.452465 62.324566-55.082833 52.428238-16.41203-6.751961-21.49956-18.475977-15.263917-35.173375 5.400772-6.351117 12.258917-10.112677 20.573106-11.282026a147.734812 147.734812 0 0 1 31.855132 0.663649c1.047237-9.795453-3.376644-14.882983-13.272972-15.263918a40.462654 40.462654 0 0 0-14.600269 0 182.876332 182.876332 0 0 1-21.236754 4.64554 80.873544 80.873544 0 0 1 0.663648-14.600269 165.646687 165.646687 0 0 1 16.591215-5.309188zM524.946032 763.8943c40.744041-5.931691 58.220563 11.323172 52.428238 51.76459-3.367353 15.3117-12.880092 23.497142-28.536889 24.554997-38.795569 3.667322-54.501477-13.8092-47.11905-52.428238 3.117821-12.627905 10.859945-20.591688 23.227701-23.891349zM266.123083 765.221597c7.533739-0.220331 15.055532 0.001327 22.564052 0.663649a483.580815 483.580815 0 0 0 18.582161 23.2277 335.666819 335.666819 0 0 0 17.254863-22.564052c7.521793-1.769287 15.042259-1.769287 22.564052 0a1042.394162 1042.394162 0 0 1-26.545944 35.173375 1585.068902 1585.068902 0 0 0 25.882295 33.846078c0.641085 1.258278 0.861416 2.585575 0.663649 3.981892a170.566978 170.566978 0 0 1-21.236755-0.663649 483.580815 483.580815 0 0 0-18.58216-23.2277 483.580815 483.580815 0 0 0-18.582161 23.2277 64.679191 64.679191 0 0 1-22.564052-0.663648 856.765016 856.765016 0 0 1 27.873241-35.837024c-9.356118-12.436775-18.647198-24.825766-27.873241-37.164321z" fill="#FFFAFA" p-id="2389"></path><path d="M369.652263 765.221597h17.254863v73.001345h-17.254863v-73.001345z" fill="#FFFEFE" p-id="2390"></path><path d="M616.529537 763.8943a112.542855 112.542855 0 0 1 37.164321 3.981891c15.579814-5.524211 31.06539-5.302552 46.455401 0.663649 3.458936 2.572302 5.891872 5.890545 7.300134 9.954729 0.663649 20.347466 0.885307 40.698913 0.663649 61.05567-6.10424 0.398189-12.077077-0.043801-17.918512-1.327297l-1.327297-54.419185c-0.663649-1.548956-1.769287-2.654594-3.318243-3.318243a65.337531 65.337531 0 0 0-18.582161 0c-1.548956 0.663649-2.654594 1.769287-3.318243 3.318243a1170.338973 1170.338973 0 0 0-0.663648 55.746482h-18.582161c0.221659-18.58747 0-37.16963-0.663648-55.746482-0.663649-1.548956-1.769287-2.654594-3.318243-3.318243a65.337531 65.337531 0 0 0-18.582161 0c-1.990946 1.105639-3.539902 2.654594-4.64554 4.645541a1115.287995 1115.287995 0 0 0-0.663648 54.419184h-17.254863c-0.221659-20.798747 0-41.593512 0.663648-62.382967 3.693868-6.811689 9.224715-11.236898 16.591215-13.272972z" fill="#FFFAF9" p-id="2391"></path><path d="M750.586551 765.221597v73.001345h-17.254863v-73.001345h17.254863z" fill="#FFFEFE" p-id="2392"></path><path d="M369.652263 765.221597v73.001345h17.254863c-5.933018 1.308715-12.127514 1.750705-18.582161 1.327297a1041.503546 1041.503546 0 0 1 1.327298-74.328642z" fill="#FFD9D5" p-id="2393"></path><path d="M750.586551 765.221597a1041.503546 1041.503546 0 0 1 1.327297 74.328642c-6.454646 0.423408-12.649142-0.018582-18.58216-1.327297h17.254863v-73.001345z" fill="#FFCFCA" p-id="2394"></path><path d="M528.927923 778.494569c7.093076-0.220331 14.171552 0.001327 21.236755 0.663648 4.936218 1.676376 8.254461 4.994619 9.954729 9.954729a120.060666 120.060666 0 0 1 0 25.218646c-1.990946 5.530847-5.751179 9.29108-11.282026 11.282026-6.636486 0.885307-13.272972 0.885307-19.909458 0-3.598303-1.673722-6.474556-4.106657-8.627431-7.300134a88.129878 88.129878 0 0 1-1.327297-29.200538c1.795833-5.110094 5.114076-8.649996 9.954728-10.618377z" fill="#FE402B" p-id="2395"></path><path d="M434.689824 805.040512c9.368063-0.394207 18.659144 0.047783 27.873241 1.327297 4.138513 10.127277 1.041928 16.542105-9.29108 19.245809-7.635941 1.12953-15.157734 0.686213-22.564052-1.327297-7.861581-8.363299-6.534284-14.778127 3.981891-19.245809z" fill="#FE4630" p-id="2396"></path></svg>