<?xml version="1.0" standalone="no"?><!DOCTYPE svg PUBLIC "-//W3C//DTD SVG 1.1//EN" "http://www.w3.org/Graphics/SVG/1.1/DTD/svg11.dtd"><svg t="1721655396493" class="icon" viewBox="0 0 1092 1024" version="1.1" xmlns="http://www.w3.org/2000/svg" p-id="53172" data-darkreader-inline-fill="" xmlns:xlink="http://www.w3.org/1999/xlink" width="213.28125" height="200"><path d="M1017.856 0H74.410667C33.3824 0 0 32.494933 0 72.635733v677.956267c0 40.1408 33.314133 72.635733 74.410667 72.635733h223.505066v176.5376c0 4.164267 1.092267 8.260267 3.140267 11.8784 6.7584 11.605333 21.845333 15.7696 33.860267 9.216l360.174933-197.563733h322.696533c41.1648 0 74.478933-32.5632 74.478934-72.704v-677.888C1092.266667 32.426667 1058.952533 0 1017.856 0zM273.066667 484.283733c-41.096533 0-74.410667-32.5632-74.410667-72.635733 0-40.1408 33.314133-72.635733 74.410667-72.635733 41.096533 0 74.410667 32.494933 74.410666 72.635733 0 40.072533-33.314133 72.635733-74.410666 72.635733z m273.066666 0c-41.096533 0-74.410667-32.5632-74.410666-72.635733 0-40.1408 33.314133-72.635733 74.410666-72.635733 41.096533 0 74.410667 32.494933 74.410667 72.635733 0 40.072533-33.314133 72.635733-74.410667 72.635733z m273.066667 0c-41.096533 0-74.410667-32.5632-74.410667-72.635733 0-40.1408 33.314133-72.635733 74.410667-72.635733 41.096533 0 74.410667 32.494933 74.410667 72.635733 0 40.072533-33.245867 72.635733-74.410667 72.635733z" fill="#1296db" p-id="53173" data-darkreader-inline-fill="" style="--darkreader-inline-fill: #0f7eb8;"></path></svg>