<?xml version="1.0" standalone="no"?><!DOCTYPE svg PUBLIC "-//W3C//DTD SVG 1.1//EN" "http://www.w3.org/Graphics/SVG/1.1/DTD/svg11.dtd"><svg t="1721655231041" class="icon" viewBox="0 0 1190 1024" version="1.1" xmlns="http://www.w3.org/2000/svg" p-id="44947" data-darkreader-inline-fill="" xmlns:xlink="http://www.w3.org/1999/xlink" width="232.421875" height="200"><path d="M559.627907 126.213953h469.134884c23.813953 0 42.865116 19.051163 42.865116 42.865117v464.372093c0 23.813953-19.051163 42.865116-42.865116 42.865116H559.627907c-23.813953 0-42.865116-19.051163-42.865116-42.865116V169.07907c0-23.813953 19.051163-42.865116 42.865116-42.865117z" fill="#0055DE" p-id="44948" data-darkreader-inline-fill="" style="--darkreader-inline-fill: #0047bb;"></path><path d="M180.986047 19.051163h669.172093c23.813953 0 42.865116 19.051163 42.865116 42.865116v662.027907c0 23.813953-19.051163 42.865116-42.865116 42.865116H180.986047c-23.813953 0-42.865116-19.051163-42.865117-42.865116V61.916279c0-23.813953 19.051163-42.865116 42.865117-42.865116z" fill="#969696" opacity=".1" p-id="44949" data-darkreader-inline-fill="" style="--darkreader-inline-fill: #575f63;"></path><path d="M850.15814 785.860465H180.986047C147.646512 785.860465 119.069767 757.283721 119.069767 723.944186V61.916279C119.069767 28.576744 147.646512 0 180.986047 0h669.172093c33.339535 0 61.916279 28.576744 61.916279 61.916279v662.027907c0 33.339535-26.195349 61.916279-61.916279 61.916279zM180.986047 38.102326c-11.906977 0-23.813953 9.525581-23.813954 23.813953v662.027907c0 11.906977 9.525581 23.813953 23.813954 23.813954h669.172093c11.906977 0 23.813953-9.525581 23.813953-23.813954V61.916279c0-11.906977-9.525581-23.813953-23.813953-23.813953H180.986047z" fill="#9BC5FF" p-id="44950" data-darkreader-inline-fill="" style="--darkreader-inline-fill: #373c3e;"></path><path d="M516.762791 669.172093c-154.790698 0-278.623256-123.832558-278.623256-276.24186C238.139535 242.902326 361.972093 119.069767 516.762791 119.069767s278.623256 123.832558 278.623256 273.860466c-2.381395 152.409302-126.213953 276.24186-278.623256 276.24186z m0-512c-133.35814 0-240.52093 107.162791-240.520931 238.139535s107.162791 238.139535 240.520931 238.139535 240.52093-107.162791 240.52093-238.139535-109.544186-238.139535-240.52093-238.139535z" fill="#FFFFFF" p-id="44951" data-darkreader-inline-fill="" style="--darkreader-inline-fill: #191b1c;"></path><path d="M469.134884 502.474419c-7.144186 0-11.906977 0-19.051163-2.381396-14.288372-4.762791-26.195349-16.669767-33.339535-30.958139-4.762791-7.144186-7.144186-16.669767-7.144186-26.195349v-97.637209c0-16.669767 7.144186-30.95814 16.669767-42.865117 19.051163-16.669767 45.246512-21.432558 69.060466-11.906976l100.018604 50.009302c14.288372 7.144186 23.813953 19.051163 30.95814 33.339535 4.762791 14.288372 4.762791 30.95814-2.381396 45.246511-4.762791 11.906977-14.288372 21.432558-26.195348 26.195349l-100.018605 50.009303c-11.906977 4.762791-19.051163 7.144186-28.576744 7.144186z m0-178.604652c-7.144186 0-11.906977 2.381395-16.669768 4.762791-2.381395 4.762791-4.762791 9.525581-4.76279 16.669768v97.637209c0 2.381395 0 7.144186 2.381395 9.525581 2.381395 4.762791 7.144186 9.525581 11.906977 11.906977 4.762791 2.381395 11.906977 2.381395 16.669767 0l100.018605-50.009302c4.762791-2.381395 7.144186-4.762791 9.525581-9.525582 2.381395-4.762791 2.381395-11.906977 0-16.669767-2.381395-4.762791-4.762791-9.525581-11.906977-11.906977L476.27907 326.251163c0-2.381395-4.762791-2.381395-7.144186-2.381396z" fill="#FFFFFF" p-id="44952" data-darkreader-inline-fill="" style="--darkreader-inline-fill: #191b1c;"></path></svg>