<?xml version="1.0" standalone="no"?><!DOCTYPE svg PUBLIC "-//W3C//DTD SVG 1.1//EN" "http://www.w3.org/Graphics/SVG/1.1/DTD/svg11.dtd"><svg t="1721655043459" class="icon" viewBox="0 0 1024 1024" version="1.1" xmlns="http://www.w3.org/2000/svg" p-id="24543" data-darkreader-inline-fill="" xmlns:xlink="http://www.w3.org/1999/xlink" width="200" height="200"><path d="M77.576 611.297h890.57v93.09H77.575z" fill="#005CFF" p-id="24544" data-darkreader-inline-fill="" style="--darkreader-inline-fill: #004ed6;"></path><path d="M459.248 238.933h-226.52c-18.619 0-31.031-12.412-31.031-31.03s12.412-31.03 31.03-31.03h226.521c18.619 0 31.03 12.412 31.03 31.03s-12.411 31.03-31.03 31.03zM583.37 363.055H232.727c-18.618 0-31.03-12.413-31.03-31.03s12.412-31.031 31.03-31.031H583.37c18.618 0 31.03 12.412 31.03 31.03s-12.412 31.03-31.03 31.03z m0 124.12H232.727c-18.618 0-31.03-12.411-31.03-31.03s12.412-31.03 31.03-31.03H583.37c18.618 0 31.03 12.412 31.03 31.03 0 15.516-12.412 31.03-31.03 31.03z" fill="#5CB6FF" p-id="24545" data-darkreader-inline-fill="" style="--darkreader-inline-fill: #00569c;"></path><path d="M726.11 633.018V248.242c0-34.133 12.411-62.06 24.823-62.06h161.358c12.412 0 24.824 27.927 24.824 62.06v350.643" fill="#D9EBF4" p-id="24546" data-darkreader-inline-fill="" style="--darkreader-inline-fill: #282b2d;"></path><path d="M757.14 633.018h-62.061V248.242c0-55.854 21.721-93.09 55.854-93.09h161.358c34.133 0 55.854 37.236 55.854 93.09v350.643h-62.06V248.242c0-15.515-3.103-24.824-3.103-31.03h-142.74c-3.103 6.206-3.103 18.618-3.103 31.03v384.776zM586.472 893.673H437.527c-43.442 0-77.575-34.134-77.575-77.576s34.133-77.576 77.575-77.576h148.946c43.442 0 77.575 34.134 77.575 77.576s-34.133 77.576-77.575 77.576z m-148.946-96.194c-9.309 0-15.515 6.206-15.515 15.515s6.206 15.515 15.515 15.515h148.946c9.309 0 15.515-6.206 15.515-15.515s-6.206-15.515-15.515-15.515H437.527z" fill="#2488FF" p-id="24547" data-darkreader-inline-fill="" style="--darkreader-inline-fill: #0057bf;"></path><path d="M754.036 580.267h-62.06V111.709c0-27.927-18.618-49.648-43.443-49.648h-480.97c-24.824 0-43.442 21.72-43.442 49.648v465.455h-62.06V111.709C62.06 49.65 108.606 0 167.564 0h484.072C707.491 0 757.14 49.648 757.14 111.71v468.557z" fill="#424242" p-id="24548" data-darkreader-inline-fill="" style="--darkreader-inline-fill: #35393b;"></path><path d="M884.364 1024H139.636c-68.266 0-124.12-55.855-124.12-124.121V608.194c0-21.721 18.617-40.34 40.339-40.34h912.29c21.722 0 40.34 18.619 40.34 40.34v291.685c0 68.266-55.855 124.121-124.121 124.121zM77.576 629.915V899.88c0 34.133 27.927 62.06 62.06 62.06h744.728c34.133 0 62.06-27.927 62.06-62.06V629.915H77.576z" fill="#424242" p-id="24549" data-darkreader-inline-fill="" style="--darkreader-inline-fill: #35393b;"></path></svg>