<?xml version="1.0" standalone="no"?><!DOCTYPE svg PUBLIC "-//W3C//DTD SVG 1.1//EN" "http://www.w3.org/Graphics/SVG/1.1/DTD/svg11.dtd"><svg t="1721655752451" class="icon" viewBox="0 0 1024 1024" version="1.1" xmlns="http://www.w3.org/2000/svg" p-id="62392" data-darkreader-inline-fill="" xmlns:xlink="http://www.w3.org/1999/xlink" width="200" height="200"><path d="M413.78 146.94c13.08-3.7 26.4-8.82 40.22-7.34 11.22 1.44 18.5 11.02 25.48 18.92 15.36 17.8 25.7 40.08 27.84 63.6 1.46 10.6 0.08 21.26-0.3 31.88-2.28 58.64-1.86 117.32-2.8 176-0.9 24.86-1.26 49.76-4.24 74.5-1.02-0.06-3.06-0.14-4.06-0.2 1.22-62.54-15.84-123.28-32.82-182.92-4.88-18.82-9.54-37.92-10.26-57.44-0.78-10.68 1.36-21.36 0.18-32.04-4.8-33.14-25.34-63.06-53.82-80.46 5.38 0.5 9.56-3.44 14.58-4.5zM558.12 144.12c5.56-4.38 13.04-5.38 19.9-4.66 15.5 1.78 30.4 6.82 44.94 12.3-12.78 9.46-25.28 19.8-34.14 33.18-8.38 12.74-14.62 27.02-17.66 41.98-1.78 14.84 0.82 29.9-1.56 44.72-1.94 26.4-10.1 51.74-17.04 77.14-12.2 44.14-24.06 89.12-24.4 135.2-1 7.68-2 15.38-2.44 23.14-5.72-13.62-4.44-28.68-5.42-43.08-1.82-22.64-0.34-45.4-2.4-68.04 0.14-42 0.1-84.02-0.94-126.04-1.06-18.74-3.22-37.76 0.18-56.4 4.78-27.12 20.24-51.62 40.98-69.44z" fill="#FDB328" p-id="62393" data-darkreader-inline-fill="" style="--darkreader-inline-fill: #bd7c02;"></path><path d="M321.34 185.36c15.3-11.22 32.38-20.56 50.94-25 5.32-1.98 10.86 1.04 14.26 5.08 7.72 8.86 11.7 20.16 15.52 31.08 10.56 31.42 15.98 64.42 17.72 97.48 4.92 40.82 26.04 76.9 41.7 114.18-25.94-19.06-46.54-44.16-66.38-69.22-30.66-41.1-57.38-84.96-87.98-126.1-2.1-2.74-3.78-6.28-2.16-9.68 3.44-7.46 10.18-12.72 16.38-17.82zM626.46 182.72c4.48-8.92 8.98-20.4 19.7-23.08 15.96 2.12 30.58 9.82 44.3 17.9 10.26 6.8 21.6 13.7 27.44 24.98 2.86 4.44-0.74 8.78-3.26 12.3-37 49.24-67.22 103.5-107.74 150.1-13.58 15.7-28.26 30.6-44.82 43.18 4.88-14.36 12.56-27.54 18.5-41.48 10.12-23.26 20-47.18 22.82-72.6 2.42-37.86 8.38-76.1 23.06-111.3zM560.04 619.46c17.72 15.06 32.32 33.4 49.74 48.78 13.28 12.8 28.62 26.6 48.22 26.72 18.72 1.02 34.86-9.7 50.08-19.08-19.9 33.2-44.54 63.24-69.66 92.6-15.02 16.92-30.14 33.84-46.84 49.16-7.32 6.54-14.6 13.46-23.68 17.48-2.4-1.76-3.14-4.06-2.24-6.86 5.84-33.86 14-67.7 13.32-102.28-0.48-23.16-3.74-46.24-9.92-68.58-2.94-12.66-7.92-24.9-9.02-37.94zM416.32 668.36c15.7-14.42 29.14-31.18 45.52-44.86-1.12 11.92-5.44 23.16-8.3 34.7-6.44 23.38-10.52 47.52-10.7 71.8-0.8 32.44 6.16 64.34 12.08 96.06 0.76 4.66 0.4 9.38 0.16 14.08-7.08-3.72-13.86-8.02-19.72-13.48-18.44-16.9-35.76-34.98-52.02-53.96-25.18-29.3-50-59.32-69.58-92.72 15.28 9.48 31.46 20.48 50.34 19.14 21.68-0.28 37.44-17.06 52.22-30.76z" fill="#FDFDFD" p-id="62394" data-darkreader-inline-fill="" style="--darkreader-inline-fill: #1a1c1d;"></path><path d="M257.96 270.08c7.66-20.2 20.46-38.1 34.1-54.68 13.02 34.48 29.12 68 50.16 98.34 6.92 10.22 15.82 18.82 24 28 10.82 11.18 19.84 24.1 31.92 34.08 15.14 12.36 32.52 21.58 47.82 33.76-26.04-13.28-52.62-25.62-80.32-35.04-15.84-5.72-32.58-8.96-47.8-16.38-21.94-10.38-42.92-25.32-55.02-46.88-7.06-12.32-10.44-27.64-4.86-41.2zM730.94 215.44c10.96 12 19.98 25.64 27.82 39.84 6.72 12.44 12.36 27.1 7.82 41.28-7.44 26.08-29.5 44.88-52.58 57.36-21.44 12.16-46.2 15.8-68.82 25.12-23.82 8.38-46.12 20.28-69.14 30.52 23.24-16.2 49.36-29.62 67.16-52.34 13.18-16.16 29.26-29.86 40.6-47.52 19.54-29.3 35.12-61.18 47.14-94.26z" fill="#FD6E40" p-id="62395" data-darkreader-inline-fill="" style="--darkreader-inline-fill: #ad2b02;"></path><path d="M753.96 351.96c11.12-9.68 17.18-23.26 23.86-36.04-0.54 8.32-1.48 16.64-3.42 24.76-5.44 23.34-12.3 46.68-24.26 67.6-9.64 16.94-20.88 33.3-35.48 46.34-13.28 11.62-29.76 19.68-47.22 22.42-23.54 2.22-48.66 1.3-69.56-11-7.5-4.84-14.98-10.8-18.84-19.02-3.44-12.4 6.32-23.6 15.76-30.26 18.06-11.8 39.6-16.2 60.18-21.6 35.06-8.1 72.78-16.64 98.98-43.2zM246.5 317.5c0.84 1.64 1.66 3.3 2.48 4.96 6.84 17.26 20.22 30.78 34.8 41.8 17.3 12.28 37.66 19.28 58.08 24.38 25.62 7.52 52.56 11.22 76.92 22.66 11.1 5.44 22.04 13.82 25.9 26.08 2.68 8.5-3.64 16.34-9.58 21.68-17.46 14.42-40.84 19.78-63.1 18.8-25.36 1.1-50.12-10.26-68.18-27.64-24.88-25.12-40.96-57.76-50.44-91.52-3.44-13.5-7.42-27.12-6.88-41.2z" fill="#3747A8" p-id="62396" data-darkreader-inline-fill="" style="--darkreader-inline-fill: #2e3c8d;"></path><path d="M241.64 373.12c5.16 9.3 7.44 19.8 11.54 29.56 13.02 32.98 33.44 65.12 64.92 83.12 26.24 15.44 58.88 16.54 87.56 7.74 18.58-5.08 35.22-15 52.34-23.5-18.16 13.12-35.8 26.92-53.98 40-21.28 15.62-44.54 30.74-57.58 54.5-6.2 10.14-8.96 22.18-16.2 31.66-5.32 6.14-14.08 2.36-20.14-0.42-25.34-12.8-42.22-37.68-52.4-63.5-14.08-36.98-19.84-76.82-19.48-116.28 0.28-14.32-0.58-28.94 3.42-42.88zM772.14 398.24c3.26-8.38 5.32-17.3 10-25.08 5.12 21.88 3.18 44.56 2.9 66.82-2.58 34.32-8.68 68.86-22.6 100.54-10.58 22.98-26.92 44.8-50.3 55.84-5.64 2.58-13.62 5.52-18.54 0-5.92-6.82-8.14-15.86-12.22-23.76-8.5-18.82-23.14-34.22-39.66-46.3-25.26-18.72-50.8-37.04-75.66-56.26 21.42 11.6 43.34 23.5 67.78 27.08 26.68 5.2 55.52 0.24 78.06-15.24 29.22-19.64 48.14-51.22 60.24-83.64z" fill="#F9BBC8" p-id="62397" data-darkreader-inline-fill="" style="--darkreader-inline-fill: #5c0819;"></path><path d="M444.2 536.28c14.26-8.98 33.36-11.12 48.42-2.88 6.8 3.86 13.44 8.12 19.36 13.26 7.8-5.96 15.76-12.3 25.24-15.32 15.5-3.22 32.68-1.86 45.9 7.56 21.54 14.78 37.16 36.26 54.7 55.28 13.02 14.04 29.48 25.88 48.62 29.46 20.8 4.06 43.86 6.34 63.28-3.98 19.36-10.28 36.3-24.88 50.28-41.7 7.96-8.96 14.24-19.26 22.24-28.2-2 13.42-9.14 25.2-15.72 36.78-20.82 33.32-50.92 62.54-88.86 75.04-18.76 7-39.14 7.08-58.84 5.48-24.3-3.54-45.1-18.84-61.38-36.48-14.04-13.98-26.4-30.58-44.58-39.44-8.36-4.38-18.16-3.96-26.84-7.24-9.46-5.48-11.18-17.5-14.24-27.04-2.9 9.14-5.08 19.66-12.72 26.14-7.86 4.06-17.34 2.92-25.42 6.54-18.8 7.88-31.84 24.2-45.28 38.8-16.78 18.26-38.1 33.9-62.9 38.56-19.76 1.5-40.34 1.92-59.08-5.44-36.96-12.24-66.54-40.3-87.36-72.48-7.4-12.18-14.92-24.8-17.46-39.02 12.64 14.84 23.2 31.56 37.88 44.6 11.98 10.42 24.26 21.46 39.66 26.46 13.1 4.22 27.06 7.36 40.86 5.18 15.3-2.32 31.3-4.84 44.28-13.92 30.88-20.76 47.42-57.22 79.96-76z" fill="#313131" p-id="62398" data-darkreader-inline-fill="" style="--darkreader-inline-fill: #272a2c;"></path><path d="M474.2 620.14c9.02 14.28 23.8 27.7 41.84 26.44 14.22-0.82 24.14-11.9 33.92-20.9-2.38 22.7-3.5 45.56-1.74 68.34 2.48 23.26 1.64 46.7 1.4 70.02-4.42 51.26-20.12 100.62-36.36 149.16-2.22 7.22-5.02 14.26-8.1 21.14-15.1-51.62-26.8-104.48-31.8-158.1-3.12-32.74-0.36-65.58 2.68-98.2 1.02-19.32-1.62-38.6-1.84-57.9z" fill="#313131" p-id="62399" data-darkreader-inline-fill="" style="--darkreader-inline-fill: #272a2c;"></path></svg>